<svg width="80" height="80" viewBox="0 0 80 80" fill="none" xmlns="http://www.w3.org/2000/svg">
<path d="M72.6673 6.80387C77.0588 11.194 79.4713 17.0221 79.4713 23.2284C79.4706 30.9175 74.8238 46.328 56.2417 46.458L46.4572 46.5645L46.4572 33.4724C51.8273 33.5009 65.2275 31.5368 66.0004 23.2287C66.0004 20.6264 64.9975 18.1603 63.1539 16.2905C61.3111 14.4471 58.8451 13.4442 56.2154 13.4442C51.0117 13.4442 46.4572 17.9982 46.4572 23.2287L46.4572 33.4724L33.0188 33.5L33.014 23.0936C33.014 17.0221 35.4268 11.1942 39.8174 6.80387C44.2083 2.4124 50.0359 -6.41353e-05 56.2425 -6.41353e-05C62.4491 -6.41353e-05 68.277 2.4124 72.6673 6.80387Z" fill="#333333"/>
<path d="M72.6673 73.1961C77.0588 68.806 79.4713 62.9779 79.4713 56.7716C79.4706 49.0825 74.8238 33.672 56.2417 33.542L46.4572 33.4355L46.4572 46.5276C51.8273 46.4991 65.2275 48.4632 66.0004 56.7713C66.0004 59.3736 64.9975 61.8397 63.1539 63.7095C61.3111 65.5529 58.8451 66.5558 56.2154 66.5558C51.0117 66.5558 46.4572 62.0018 46.4572 56.7713L46.4572 46.5276L33.0188 46.5L33.014 56.9064C33.014 62.9779 35.4268 68.8058 39.8174 73.1961C44.2083 77.5876 50.0359 80.0001 56.2425 80.0001C62.4491 80.0001 68.277 77.5876 72.6673 73.1961Z" fill="#333333"/>
<path d="M6.80388 73.1961C2.41241 68.806 -6.54719e-05 62.9779 -6.54719e-05 56.7716C0.00058112 49.0825 4.64741 33.672 23.2295 33.542L33.014 33.4355L33.014 46.5276C27.6439 46.4991 14.2437 48.4632 13.4708 56.7713C13.4708 59.3736 14.4737 61.8397 16.3173 63.7095C18.1601 65.5529 20.6261 66.5558 23.2558 66.5558C28.4595 66.5558 33.014 62.0018 33.014 56.7713L33.014 46.5276L46.4524 46.5L46.4572 56.9064C46.4572 62.9779 44.0444 68.8058 39.6538 73.1961C35.2629 77.5876 29.4353 80.0001 23.2287 80.0001C17.0221 80.0001 11.1942 77.5876 6.80388 73.1961Z" fill="#333333"/>
<path fill-rule="evenodd" clip-rule="evenodd" d="M-6.54719e-05 23.2284C-6.54719e-05 17.0221 2.41241 11.194 6.80388 6.80387C11.1942 2.4124 17.0221 -6.41353e-05 23.2287 -6.41353e-05C29.4353 -6.41353e-05 35.2629 2.4124 39.6538 6.80387C44.0444 11.1942 46.4572 17.0221 46.4572 23.0936L46.4524 33.5L33.014 33.4724L33.014 23.2287C33.014 17.9982 28.4595 13.4442 23.2558 13.4442C20.6261 13.4442 18.1601 14.4471 16.3173 16.2905C14.4737 18.1603 13.4708 20.6264 13.4708 23.2287C13.8292 27.0813 16.9029 29.5697 20.632 31.1279C12.0518 31.1279 6.3196 35.3819 4.52601 37.5089C1.13525 32.7137 0.000254063 27.0282 -6.54719e-05 23.2284Z" fill="#333333"/>
<rect x="33.0132" y="33.4355" width="13.4447" height="13.1302" fill="#333333"/>
</svg>
