<svg width="523" height="104" viewBox="0 0 523 104" fill="none" xmlns="http://www.w3.org/2000/svg">
<path d="M72.6673 12.5636C77.0588 16.9537 79.4713 22.7818 79.4713 28.9882C79.4706 36.6772 74.8238 52.0878 56.2417 52.2178L46.4572 52.3242L46.4572 39.2322C51.8273 39.2607 65.2275 37.2966 66.0004 28.9885C66.0004 26.3862 64.9975 23.9201 63.1539 22.0502C61.3111 20.2069 58.8451 19.204 56.2154 19.204C51.0117 19.204 46.4572 23.7579 46.4572 28.9885L46.4572 39.2322L33.0188 39.2598L33.014 28.8534C33.014 22.7818 35.4268 16.954 39.8174 12.5636C44.2083 8.17217 50.0359 5.7597 56.2425 5.7597C62.4491 5.7597 68.277 8.17217 72.6673 12.5636Z" fill="#FFFFFF"/>
<path d="M72.6673 78.9559C77.0588 74.5658 79.4713 68.7377 79.4713 62.5314C79.4706 54.8423 74.8238 39.4317 56.2417 39.3018L46.4572 39.1953L46.4572 52.2874C51.8273 52.2589 65.2275 54.2229 66.0004 62.5311C66.0004 65.1334 64.9975 67.5994 63.1539 69.4693C61.3111 71.3126 58.8451 72.3155 56.2154 72.3155C51.0117 72.3155 46.4572 67.7616 46.4572 62.5311L46.4572 52.2874L33.0188 52.2598L33.014 62.6662C33.014 68.7377 35.4268 74.5655 39.8174 78.9559C44.2083 83.3474 50.0359 85.7598 56.2425 85.7598C62.4491 85.7598 68.277 83.3474 72.6673 78.9559Z" fill="#FFFFFF"/>
<path d="M6.80388 78.9559C2.41241 74.5658 -6.54719e-05 68.7377 -6.54719e-05 62.5314C0.00058112 54.8423 4.64741 39.4317 23.2295 39.3018L33.014 39.1953L33.014 52.2874C27.6439 52.2589 14.2437 54.2229 13.4708 62.5311C13.4708 65.1334 14.4737 67.5994 16.3173 69.4693C18.1601 71.3126 20.6261 72.3155 23.2558 72.3155C28.4595 72.3155 33.014 67.7616 33.014 62.5311L33.014 52.2874L46.4524 52.2598L46.4572 62.6662C46.4572 68.7377 44.0444 74.5655 39.6538 78.9559C35.2629 83.3474 29.4353 85.7598 23.2287 85.7598C17.0221 85.7598 11.1942 83.3474 6.80388 78.9559Z" fill="#FFFFFF"/>
<path fill-rule="evenodd" clip-rule="evenodd" d="M-6.54719e-05 28.9882C-6.54719e-05 22.7818 2.41241 16.9537 6.80388 12.5636C11.1942 8.17217 17.0221 5.7597 23.2287 5.7597C29.4353 5.7597 35.2629 8.17217 39.6538 12.5636C44.0444 16.954 46.4572 22.7818 46.4572 28.8534L46.4524 39.2598L33.014 39.2322L33.014 28.9885C33.014 23.7579 28.4595 19.204 23.2558 19.204C20.6261 19.204 18.1601 20.2069 16.3173 22.0502C14.4737 23.9201 13.4708 26.3862 13.4708 28.9885C13.8292 32.8411 16.9029 35.3295 20.632 36.8876C12.0518 36.8876 6.3196 41.1417 4.52601 43.2687C1.13525 38.4735 0.000254063 32.788 -6.54719e-05 28.9882Z" fill="#FFFFFF"/>
<rect x="33.0132" y="39.1953" width="13.4447" height="13.1302" fill="#FFFFFF"/>
<path d="M135.282 57.9838V65.5358H113.01V57.9838H135.282ZM144.37 85.7598H135.538L123.634 12.2878L113.138 85.7598H104.306L116.722 6.14376H130.674L144.37 85.7598ZM157.653 56.9598H148.821V33.6638C148.821 30.2504 149.631 27.7331 151.253 26.1118C152.959 24.4051 155.519 23.5518 158.933 23.5518H164.053C166.271 23.5518 168.063 24.1491 169.429 25.3438C170.879 26.4531 171.605 28.4584 171.605 31.3598V40.0638H171.093V35.7118C171.093 34.0051 170.751 32.8104 170.069 32.1278C169.386 31.4451 168.277 31.1038 166.741 31.1038H161.621C159.999 31.1038 158.933 31.3598 158.421 31.8718C157.909 32.2984 157.653 33.3651 157.653 35.0718V56.9598ZM171.093 0.127762H179.925V85.7598H171.093V78.9758V78.0798V0.127762ZM148.821 52.2238H157.653V74.2398C157.653 75.8611 157.909 76.9278 158.421 77.4398C158.933 77.9518 159.999 78.2078 161.621 78.2078H166.741C168.277 78.2078 169.386 77.8664 170.069 77.1838C170.751 76.5011 171.093 75.3064 171.093 73.5998V70.6558L171.605 70.7838V77.9518C171.605 80.8531 170.879 82.9011 169.429 84.0958C168.063 85.2051 166.271 85.7598 164.053 85.7598H158.933C155.519 85.7598 152.959 84.9491 151.253 83.3278C149.631 81.6211 148.821 79.0611 148.821 75.6478V52.2238ZM220.005 85.7598H211.173V35.1998C211.173 33.4931 210.917 32.4264 210.405 31.9998C209.978 31.4878 208.911 31.2318 207.205 31.2318H202.085C200.549 31.2318 199.439 31.5731 198.757 32.2558C198.074 32.9384 197.733 34.1331 197.733 35.8398V40.1918H197.221V31.4878C197.221 28.5864 197.903 26.5811 199.269 25.4718C200.719 24.2771 202.554 23.6798 204.773 23.6798H209.893C213.306 23.6798 215.823 24.5331 217.445 26.2398C219.151 27.8611 220.005 30.3784 220.005 33.7918V85.7598ZM197.733 85.7598H188.901V23.6798H197.733V30.3358V31.2318V85.7598ZM242.277 85.7598H233.445V35.1998C233.445 33.4931 233.189 32.4264 232.677 31.9998C232.25 31.4878 231.183 31.2318 229.477 31.2318H224.357C222.821 31.2318 221.711 31.5731 221.029 32.2558C220.346 32.9384 220.005 34.1331 220.005 35.8398V40.1918H218.853V31.6158C218.853 28.7144 219.621 26.6664 221.157 25.4718C222.693 24.2771 224.655 23.6798 227.045 23.6798H232.165C235.578 23.6798 238.095 24.5331 239.717 26.2398C241.423 27.8611 242.277 30.3784 242.277 33.7918V85.7598ZM259.423 85.7598H250.591V23.6798H259.423V85.7598ZM250.335 10.3678V-0.000236511H259.679V10.3678H250.335ZM277.238 85.7598H268.406V23.6798H277.238V30.3358V31.2318V85.7598ZM299.51 85.7598H290.678V35.1998C290.678 33.4931 290.422 32.4264 289.91 31.9998C289.483 31.4878 288.416 31.2318 286.71 31.2318H281.59C280.054 31.2318 278.944 31.5731 278.262 32.2558C277.579 32.9384 277.238 34.1331 277.238 35.8398V40.1918H276.726V31.4878C276.726 28.5864 277.408 26.5811 278.774 25.4718C280.224 24.2771 282.059 23.6798 284.278 23.6798H289.398C292.811 23.6798 295.328 24.5331 296.95 26.2398C298.656 27.8611 299.51 30.3784 299.51 33.7918V85.7598ZM323.816 6.14376H349.032C352.445 6.14376 354.962 6.99709 356.584 8.70376C358.29 10.3251 359.144 12.8424 359.144 16.2558V39.1678C359.144 41.0451 358.717 42.5384 357.864 43.6478C357.01 44.6718 355.858 45.2691 354.408 45.4398C355.858 45.6958 357.01 46.2931 357.864 47.2318C358.717 48.0851 359.144 49.4504 359.144 51.3278V75.6478C359.144 79.0611 358.29 81.6211 356.584 83.3278C354.962 84.9491 352.445 85.7598 349.032 85.7598H323.816V6.14376ZM350.312 74.2398V52.8638C350.312 51.1571 350.056 50.0904 349.544 49.6638C349.117 49.1518 348.05 48.8958 346.344 48.8958H332.648V78.2078H346.344C348.05 78.2078 349.117 77.9518 349.544 77.4398C350.056 76.9278 350.312 75.8611 350.312 74.2398ZM350.312 37.3758V17.6638C350.312 15.9571 350.056 14.8904 349.544 14.4638C349.117 13.9518 348.05 13.6958 346.344 13.6958H332.648V41.3438H346.344C348.05 41.3438 349.117 41.0878 349.544 40.5758C350.056 40.0638 350.312 38.9971 350.312 37.3758ZM368.726 23.6798H377.558V74.2398C377.558 75.8611 377.814 76.9278 378.326 77.4398C378.838 77.9518 379.904 78.2078 381.526 78.2078H386.646C388.182 78.2078 389.291 77.8664 389.974 77.1838C390.656 76.5011 390.998 75.3064 390.998 73.5998V69.2478H391.51V77.9518C391.51 80.8531 390.784 82.9011 389.334 84.0958C387.968 85.2051 386.176 85.7598 383.958 85.7598H378.838C375.424 85.7598 372.864 84.9491 371.158 83.3278C369.536 81.6211 368.726 79.0611 368.726 75.6478V23.6798ZM390.998 23.6798H399.83V85.7598H390.998V79.1038V78.2078V23.6798ZM416.983 56.9598H408.151V33.6638C408.151 30.2504 408.961 27.7331 410.583 26.1118C412.289 24.4051 414.849 23.5518 418.263 23.5518H423.383C425.601 23.5518 427.393 24.1491 428.759 25.3438C430.209 26.4531 430.935 28.4584 430.935 31.3598V40.0638H430.423V35.7118C430.423 34.0051 430.081 32.8104 429.399 32.1278C428.716 31.4451 427.607 31.1038 426.071 31.1038H420.951C419.329 31.1038 418.263 31.3598 417.751 31.8718C417.239 32.2984 416.983 33.3651 416.983 35.0718V56.9598ZM430.423 0.127762H439.255V85.7598H430.423V78.9758V78.0798V0.127762ZM408.151 52.2238H416.983V74.2398C416.983 75.8611 417.239 76.9278 417.751 77.4398C418.263 77.9518 419.329 78.2078 420.951 78.2078H426.071C427.607 78.2078 428.716 77.8664 429.399 77.1838C430.081 76.5011 430.423 75.3064 430.423 73.5998V70.6558L430.935 70.7838V77.9518C430.935 80.8531 430.209 82.9011 428.759 84.0958C427.393 85.2051 425.601 85.7598 423.383 85.7598H418.263C414.849 85.7598 412.289 84.9491 410.583 83.3278C408.961 81.6211 408.151 79.0611 408.151 75.6478V52.2238ZM456.423 56.9598H447.591V33.6638C447.591 30.2504 448.401 27.7331 450.023 26.1118C451.729 24.4051 454.289 23.5518 457.703 23.5518H462.823C465.041 23.5518 466.833 24.1491 468.199 25.3438C469.649 26.4531 470.375 28.4584 470.375 31.3598V40.0638H469.863V35.7118C469.863 34.0051 469.521 32.8104 468.839 32.1278C468.156 31.4451 467.047 31.1038 465.511 31.1038H460.391C458.769 31.1038 457.703 31.3598 457.191 31.8718C456.679 32.2984 456.423 33.3651 456.423 35.0718V56.9598ZM469.863 0.127762H478.695V85.7598H469.863V78.9758V78.0798V0.127762ZM447.591 52.2238H456.423V74.2398C456.423 75.8611 456.679 76.9278 457.191 77.4398C457.703 77.9518 458.769 78.2078 460.391 78.2078H465.511C467.047 78.2078 468.156 77.8664 468.839 77.1838C469.521 76.5011 469.863 75.3064 469.863 73.5998V70.6558L470.375 70.7838V77.9518C470.375 80.8531 469.649 82.9011 468.199 84.0958C466.833 85.2051 465.041 85.7598 462.823 85.7598H457.703C454.289 85.7598 451.729 84.9491 450.023 83.3278C448.401 81.6211 447.591 79.0611 447.591 75.6478V52.2238ZM483.191 23.6798H492.023L502.007 79.6158L511.351 23.6798H520.183L507.767 93.6958C507.169 97.0238 505.847 99.5411 503.799 101.248C501.751 102.954 499.02 103.808 495.607 103.808H488.695V96.2558H492.919C494.625 96.2558 496.033 95.9998 497.143 95.4878C498.252 94.9758 498.977 93.9091 499.319 92.2878L500.855 85.7598H495.095L483.191 23.6798Z" fill="#FFFFFF"/>
</svg>
