<svg width="1080" height="1080" viewBox="0 0 1080 1080" fill="none" xmlns="http://www.w3.org/2000/svg">
<path d="M279.759 309.184C337.601 154.88 508.534 81.8401 662.928 128.149C805.968 171.061 904.308 337.166 845.126 481.905C832.851 511.872 823.011 539.414 818.969 565.401C818.329 565.502 817.685 565.6 817.035 565.687C789.888 569.35 749.825 562.003 702.602 508.437C697.124 502.223 687.646 501.626 681.432 507.104C675.217 512.583 674.62 522.062 680.099 528.276C730.965 585.976 778.94 599.748 817.116 595.88C818.687 630.457 834.046 662.701 872.214 694.946C892.865 712.826 943.108 738.931 942.93 770.221C942.929 811.166 862.469 761.281 853.529 754.397C863.721 772.277 964.922 877.68 900.554 885.189C841.281 892.073 788.893 809.288 753.311 773.797C693.503 714.078 703.874 846.211 703.605 873.478C703.605 916.569 672.762 1003.82 618.139 946.965C573.439 900.029 590.067 825.202 558.687 772.992C523.553 715.866 466.784 830.119 452.033 851.039C436.12 874.372 356.285 987.463 324.459 927.208C298.712 878.306 339.836 802.047 360.22 757.347C352.8 773.439 300.501 797.13 285.213 804.908C252.066 823.179 214.481 831.848 176.681 829.94C96.2206 824.129 157.907 781.485 190.717 760.386H191.074C255.353 719.084 330.539 648.1 301.931 564.958C286.375 519.543 264.74 480.565 261.879 431.484C259.304 389.919 265.393 348.272 279.759 309.184ZM757.112 313.01C720.327 313.01 690.506 342.831 690.506 379.617C690.506 416.402 720.327 446.223 757.112 446.223C793.898 446.223 823.718 416.402 823.718 379.617C823.718 342.832 793.898 313.011 757.112 313.01Z" fill="#7C3AED"/>
</svg>
